<?xml version="1.0" encoding="UTF-8" standalone="no"?>
<svg width="75px" height="75px" viewBox="0 0 75 75" version="1.1" xmlns="http://www.w3.org/2000/svg" xmlns:xlink="http://www.w3.org/1999/xlink">
    <!-- Generator: Sketch 41.2 (35397) - http://www.bohemiancoding.com/sketch -->
    <title>fb</title>
    <desc>Created with Sketch.</desc>
    <defs></defs>
    <g id="Page-1" stroke="none" stroke-width="1" fill="none" fill-rule="evenodd">
        <g id="fb" fill="#000000">
            <g id="Layer_2">
                <g id="Layer_1-2">
                    <g id="_Group_">
                        <path d="M37.5,4 C56.0015391,4 71,18.9984609 71,37.5 C71,56.0015391 56.0015391,71 37.5,71 C18.9984609,71 4,56.0015391 4,37.5 C4.02204103,19.0075983 19.0075983,4.02204103 37.5,4 L37.5,4 Z M37.5,8.8817842e-16 C16.7893219,-1.26816328e-15 2.53632657e-15,16.7893219 0,37.5 C-2.53632657e-15,58.2106781 16.7893219,75 37.5,75 C58.2106781,75 75,58.2106781 75,37.5 C75,27.5543816 71.0491185,18.0161099 64.0165043,10.9834957 C56.9838901,3.95088151 47.4456184,6.08993485e-16 37.5,0 L37.5,8.8817842e-16 Z" id="Shape"></path>
                    </g>
                    <g id="_Group_2" transform="translate(28.000000, 19.000000)">
                        <polygon id="_Path_" points="16.22 19.47 0.73 19.47 0.73 12.33 17.41 12.33"></polygon>
                        <path d="M4.34,7.61 L4.34,36.15 L11.45,36.15 L11.45,8.75 C11.4147902,8.42486846 11.5288,8.10129383 11.7600469,7.87004693 C11.9912938,7.63880004 12.3148685,7.52479019 12.64,7.56 L17.4,7.56 L17.4,0.42 L11.92,0.42 C4.16,0.42 4.34,6.68 4.34,7.61 Z" id="Facebook"></path>
                    </g>
                </g>
            </g>
        </g>
    </g>
</svg>