<svg xmlns="http://www.w3.org/2000/svg" viewBox="0 0 48.34 45.4"><defs><style>.cls-1{fill:#58595b;}</style></defs><title>EMPTY MAZE ICON FOR NUMBER</title><g id="Layer_2" data-name="Layer 2"><g id="Layer_1-2" data-name="Layer 1"><polygon class="cls-1" points="24.64 34.05 34.15 28.02 34.23 27.97 33.76 16.63 23.79 11.41 23.7 11.36 14.2 17.39 14.11 17.44 14.52 27.39 14.87 27.39 14.46 17.62 23.72 11.75 33.43 16.84 33.88 27.79 24.63 33.66 15.72 29 15.72 29.38 24.55 34 24.64 34.05"/><path class="cls-1" d="M.63,26.08a8.29,8.29,0,0,1,.83-6.33,6.88,6.88,0,0,1,2.45-2.68L22.06,6.59l-.17-.3L3.75,16.78a7.2,7.2,0,0,0-2.58,2.8A8.7,8.7,0,0,0,7.44,32.52l0-.34a8.36,8.36,0,0,1-6.86-6.1Z"/><path class="cls-1" d="M7.63,13A8.35,8.35,0,0,1,15.38,1.56a6.87,6.87,0,0,1,3.54.79L37.07,12.82l.17-.3L19.09,2.05a7.19,7.19,0,0,0-3.71-.83A8.69,8.69,0,0,0,7.31,13.13Z"/><path class="cls-1" d="M26.69,1.46a8.35,8.35,0,0,1,11.4,3.05A6.88,6.88,0,0,1,39.18,8v21h.34V8a7.2,7.2,0,0,0-1.14-3.63A8.69,8.69,0,0,0,24,3.31l.27.21A8.28,8.28,0,0,1,26.69,1.46Z"/><path class="cls-1" d="M44,14a8.64,8.64,0,0,0-3.1-1.08l0,.34a8.35,8.35,0,0,1,6,12.44,6.88,6.88,0,0,1-2.45,2.68L26.28,38.82l.17.3L44.6,28.63a7.2,7.2,0,0,0,2.58-2.8A8.7,8.7,0,0,0,44,14Z"/><path class="cls-1" d="M21.66,43.95a8.35,8.35,0,0,1-11.4-3.06,6.89,6.89,0,0,1-1.09-3.46v-21H8.82v21A7.2,7.2,0,0,0,10,41.06a8.69,8.69,0,0,0,14.35,1L24,41.89A8.33,8.33,0,0,1,21.66,43.95Z"/><path class="cls-1" d="M40.72,32.41A8.35,8.35,0,0,1,33,43.85a6.87,6.87,0,0,1-3.54-.79L11.27,32.59l-.17.3L29.25,43.36a7.18,7.18,0,0,0,3.71.83A8.69,8.69,0,0,0,41,32.28Z"/></g></g></svg>