<svg xmlns="http://www.w3.org/2000/svg" viewBox="0 0 150.93 99.32"><defs><style>.cls-1{fill:#c49a6c;}.cls-2{fill:#377295;}.cls-3{opacity:0.5;}</style></defs><title>COLOR LH HMAZE LOGO W TAG</title><g id="Layer_2" data-name="Layer 2"><g id="Layer_1-2" data-name="Layer 1"><polygon class="cls-1" points="85.99 29.58 86.09 29.52 85.59 17.65 85.59 17.54 74.96 11.98 64.93 18.34 64.83 18.4 65.27 28.89 65.67 28.89 65.24 18.61 74.98 12.43 85.2 17.78 85.68 29.31 75.94 35.48 66.55 30.57 66.55 31.02 75.96 35.94 85.99 29.58"/><path class="cls-1" d="M58,13.72a8.79,8.79,0,0,1,8.16-12,7.24,7.24,0,0,1,3.73.83l19.13,11,.2-.34-19.13-11a7.6,7.6,0,0,0-3.93-.88,9.18,9.18,0,0,0-8.53,12.58Z"/><path class="cls-1" d="M100.65,20.3a9.19,9.19,0,0,0-7.55-6.71L93,14a8.78,8.78,0,0,1,6.35,13.08,7.23,7.23,0,0,1-2.58,2.81l-19.13,11,.2.34L97,30.22a7.59,7.59,0,0,0,2.73-3A9.12,9.12,0,0,0,100.65,20.3Z"/><path class="cls-1" d="M78.12,1.58a8.78,8.78,0,0,1,12,3.21,7.23,7.23,0,0,1,1.15,3.64V30.52h.4V8.43a7.6,7.6,0,0,0-1.2-3.84A9.18,9.18,0,0,0,75.3,3.5l.31.24A8.75,8.75,0,0,1,78.12,1.58Z"/><path class="cls-1" d="M92.89,34.2a8.79,8.79,0,0,1-8.16,12A7.25,7.25,0,0,1,81,45.41l-19.13-11-.2.34,19.13,11a7.6,7.6,0,0,0,3.93.88,9.18,9.18,0,0,0,8.53-12.58Z"/><path class="cls-1" d="M72.8,46.34a8.79,8.79,0,0,1-12-3.21,7.23,7.23,0,0,1-1.15-3.64V17.39h-.4V39.48a7.6,7.6,0,0,0,1.2,3.84A9.12,9.12,0,0,0,66,47.6a9.23,9.23,0,0,0,2.39.32,9.21,9.21,0,0,0,7.19-3.5l-.31-.24A8.75,8.75,0,0,1,72.8,46.34Z"/><path class="cls-1" d="M51.53,20.85A7.24,7.24,0,0,1,54.11,18L73.25,7,73,6.64l-19.13,11a7.6,7.6,0,0,0-2.73,3,9.18,9.18,0,0,0,6.63,13.67l.06-.39a8.79,8.79,0,0,1-6.35-13.08Z"/><rect class="cls-1" x="71.74" y="19.02" width="0.46" height="9.65"/><rect class="cls-1" x="78.83" y="19.02" width="0.46" height="9.65"/><rect class="cls-1" x="75.3" y="21.41" width="0.46" height="5.19" transform="translate(99.54 -51.52) rotate(90)"/><path class="cls-2" d="M1.08,63.54v13H9v1H0v-14Z"/><path class="cls-2" d="M15.07,77.59v-14h1.06v14Z"/><path class="cls-2" d="M34.89,63.54,29.11,77.63H28L22.17,63.54h1.16l5.2,12.84,5.2-12.84Z"/><path class="cls-2" d="M40.79,77.59v-14h1.06v14Z"/><path class="cls-2" d="M49.44,63.54l9.45,11.62V63.54H60v14h-.42L50.06,66v11.6H49v-14Z"/><path class="cls-2" d="M78.15,66.13a6.53,6.53,0,0,0-4.51-1.81,5.92,5.92,0,0,0-6.2,6.26,5.84,5.84,0,0,0,6.2,6.16,6.33,6.33,0,0,0,4.27-1.62V71.18H73v-.94h5.92V75.5a7.25,7.25,0,0,1-5.3,2.27,6.82,6.82,0,0,1-7.24-7.16,6.86,6.86,0,0,1,7.24-7.26,7.31,7.31,0,0,1,5.14,2.11Z"/><path class="cls-2" d="M95.53,77.59V71.2H86.58v6.38H85.5v-14h1.08v6.68h8.95V63.54h1.08v14Z"/><path class="cls-2" d="M117.28,70.58c0,3.69-2.37,7.24-7.08,7.24s-7.08-3.57-7.08-7.28,2.35-7.22,7.08-7.22S117.3,66.79,117.28,70.58Zm-13.1,0c0,3.17,2,6.26,6,6.26s6-3.09,6-6.26-2-6.24-6-6.24S104.16,67.25,104.18,70.56Z"/><path class="cls-2" d="M124.94,72.73v4.86h-1.08v-14H130c6.1,0,6.1,9.19,0,9.19Zm0-8.19v7.2H130c4.68,0,4.68-7.2,0-7.2Z"/><path class="cls-2" d="M142.06,70h8.23v1h-8.23v5.54h8.87v1H141v-14h9.69v1h-8.63Z"/><g class="cls-3"><path class="cls-2" d="M13.29,90.07l-1.62,5.34a3.17,3.17,0,0,0-.15.63.4.4,0,0,0,.23.38,1.11,1.11,0,0,0,.52.12h.19l-.07.24H9.31l.07-.24h.16a1.29,1.29,0,0,0,.57-.11.74.74,0,0,0,.33-.28,4.21,4.21,0,0,0,.27-.73L12.36,90q-.88-.08-1.49-.08a3.36,3.36,0,0,0-1,.11q-.33.11-.33.33a.74.74,0,0,0,.06.24.73.73,0,0,1,.05.22.34.34,0,0,1-.1.25.36.36,0,0,1-.27.1A.37.37,0,0,1,9,91a.6.6,0,0,1-.11-.35.89.89,0,0,1,.48-.74A3.25,3.25,0,0,1,11,89.61q.62,0,2.35.14,1.24.11,1.86.11t.66-.31q0-.22.22-.22c.17,0,.25.09.25.27q0,.58-1.22.58Q14.54,90.17,13.29,90.07Z"/><path class="cls-2" d="M17,96.86h-.63l1.86-6.11a4,4,0,0,0,.16-.6.2.2,0,0,0-.07-.17.71.71,0,0,0-.35-.05H17.8l.06-.22a3.67,3.67,0,0,0,1.25-.19h.13L18,93.46q1-1.15,1.73-1.15a.8.8,0,0,1,.53.15.56.56,0,0,1,.17.45A5,5,0,0,1,20.17,94l-.47,1.33a5.43,5.43,0,0,0-.27.9.33.33,0,0,0,.05.2.19.19,0,0,0,.16.07.67.67,0,0,0,.43-.23,2,2,0,0,0,.41-.57h.26a2.83,2.83,0,0,1-.64.87,1.09,1.09,0,0,1-.7.33.56.56,0,0,1-.42-.18.66.66,0,0,1-.17-.48,4,4,0,0,1,.3-1.13l.45-1.22a4.49,4.49,0,0,0,.31-1.06.26.26,0,0,0-.07-.2.32.32,0,0,0-.22-.07,1.14,1.14,0,0,0-.56.19,2.57,2.57,0,0,0-.67.65,3.71,3.71,0,0,0-.51.85q-.16.4-.42,1.26Z"/><path class="cls-2" d="M24.63,95.44h.25q-.67,1.5-1.72,1.5a.9.9,0,0,1-.71-.3,1.19,1.19,0,0,1-.27-.82,3.83,3.83,0,0,1,.35-1.48,4.1,4.1,0,0,1,1-1.42,1.82,1.82,0,0,1,1.13-.6.55.55,0,0,1,.45.19.72.72,0,0,1,.15.47,1.51,1.51,0,0,1-.57,1.1,6.06,6.06,0,0,1-1.71,1,2.84,2.84,0,0,0-.15.87.82.82,0,0,0,.13.51.47.47,0,0,0,.39.17Q24.08,96.62,24.63,95.44Zm-1.57-.63A4.13,4.13,0,0,0,24.29,94a1.49,1.49,0,0,0,.54-1,.45.45,0,0,0-.08-.3.3.3,0,0,0-.25-.1q-.32,0-.75.62A5.09,5.09,0,0,0,23.06,94.8Z"/><path class="cls-2" d="M32.86,93.31l-.63,2.11a3.41,3.41,0,0,0-.15.63.41.41,0,0,0,.21.38,1,1,0,0,0,.53.12H33l-.07.24H30.06l.07-.24a1.23,1.23,0,0,0,.56-.12.68.68,0,0,0,.31-.28,5,5,0,0,0,.24-.69l1.39-4.56a3.25,3.25,0,0,0,.16-.67q0-.38-.69-.38h-.24l.07-.24h2a11.5,11.5,0,0,1,1.2,0,2.15,2.15,0,0,1,.8.27,1.64,1.64,0,0,1,.63.6,1.51,1.51,0,0,1,.22.78,1.85,1.85,0,0,1-.66,1.38,4.22,4.22,0,0,1-2.73.62Zm.07-.24h.31a4.94,4.94,0,0,0,1.3-.14,1.61,1.61,0,0,0,.87-.66,1.94,1.94,0,0,0,.37-1.14,1.35,1.35,0,0,0-.22-.79.91.91,0,0,0-.52-.39,4,4,0,0,0-.89-.07h-.25Z"/><path class="cls-2" d="M43.59,96.19l.12.25a2,2,0,0,1-1.2.44,1.13,1.13,0,0,1-.93-.37,1.85,1.85,0,0,1-.31-1.18V94.9a3,3,0,0,0-.13-1,.73.73,0,0,0-.35-.41,1.85,1.85,0,0,0-.73-.11h-.26l-.63,2.07A3.52,3.52,0,0,0,39,96a.4.4,0,0,0,.23.39,1.12,1.12,0,0,0,.51.11h.15l-.07.24h-2.9l.07-.24h.12a1.19,1.19,0,0,0,.56-.12.7.7,0,0,0,.31-.28,4.81,4.81,0,0,0,.24-.68L39.6,90.9a3.33,3.33,0,0,0,.16-.67A.31.31,0,0,0,39.6,90a1.35,1.35,0,0,0-.62-.1l.07-.24h1.88q.78,0,1.17,0a2.13,2.13,0,0,1,.8.26,1.63,1.63,0,0,1,.63.57,1.47,1.47,0,0,1,.22.79,1.7,1.7,0,0,1-.67,1.38,3.54,3.54,0,0,1-2.14.59A2,2,0,0,1,42,94a2.8,2.8,0,0,1,.34,1.35,2.56,2.56,0,0,0,.14.89.42.42,0,0,0,.42.23A1.34,1.34,0,0,0,43.59,96.19Zm-3.71-3.08h.21a3.29,3.29,0,0,0,2-.52,1.73,1.73,0,0,0,.67-1.45,1.18,1.18,0,0,0-.41-1,2,2,0,0,0-1.23-.33h-.27Z"/><path class="cls-2" d="M48.94,94.07H46.88l-.66,1q-.32.5-.39.63a.63.63,0,0,0-.07.29q0,.52.76.54h.17l-.07.24H44.11l.07-.24A1.46,1.46,0,0,0,45,96.2a7,7,0,0,0,1-1.26l3.65-5.45h.37L49.8,95.3l0,.65a.49.49,0,0,0,.2.46,1.51,1.51,0,0,0,.66.13l-.07.24H47.75l.07-.24a1.38,1.38,0,0,0,.76-.16.57.57,0,0,0,.24-.36,7.4,7.4,0,0,0,.06-.79Zm0-.24.14-3.06-2,3.06Z"/><path class="cls-2" d="M57.91,94.55h.24l-.72,2.33H57.2a5.23,5.23,0,0,0-.05-.71,2.47,2.47,0,0,1-1.77.75,2.23,2.23,0,0,1-1.83-.83,2.92,2.92,0,0,1-.68-1.9A5,5,0,0,1,54.09,91a3.54,3.54,0,0,1,2.77-1.5,2,2,0,0,1,1.09.28,1.78,1.78,0,0,1,.68.84,3.52,3.52,0,0,0,.36-.83h.23l-.48,2.09h-.22a2.54,2.54,0,0,0,0-.27,2.07,2.07,0,0,0-.43-1.4A1.43,1.43,0,0,0,57,89.71a2.19,2.19,0,0,0-1.44.56,4.63,4.63,0,0,0-1.18,1.92,6.88,6.88,0,0,0-.52,2.4,2.45,2.45,0,0,0,.44,1.5,1.41,1.41,0,0,0,1.19.59Q56.95,96.67,57.91,94.55Z"/><path class="cls-2" d="M65.22,90.07,63.6,95.41a3.17,3.17,0,0,0-.15.63.4.4,0,0,0,.23.38,1.11,1.11,0,0,0,.52.12h.19l-.07.24H61.24l.07-.24h.16a1.29,1.29,0,0,0,.57-.11.74.74,0,0,0,.33-.28,4.21,4.21,0,0,0,.27-.73L64.29,90q-.88-.08-1.49-.08a3.36,3.36,0,0,0-1,.11q-.33.11-.33.33a.74.74,0,0,0,.06.24.73.73,0,0,1,.05.22.34.34,0,0,1-.1.25.36.36,0,0,1-.27.1.37.37,0,0,1-.32-.16.6.6,0,0,1-.11-.35.89.89,0,0,1,.48-.74,3.25,3.25,0,0,1,1.68-.31q.62,0,2.35.14,1.24.11,1.86.11t.66-.31q0-.22.22-.22c.17,0,.25.09.25.27q0,.58-1.22.58Q66.47,90.17,65.22,90.07Z"/><path class="cls-2" d="M70.71,96.54l-.07.24h-3l.07-.24h.16a1.19,1.19,0,0,0,.56-.12.69.69,0,0,0,.31-.28,4.79,4.79,0,0,0,.24-.68l1.38-4.56a3.3,3.3,0,0,0,.16-.66q0-.38-.68-.38h-.19l.07-.24h2.82l-.07.24h-.15a1.15,1.15,0,0,0-.46.09.59.59,0,0,0-.29.25,5.79,5.79,0,0,0-.29.82l-1.34,4.4a3.14,3.14,0,0,0-.15.63.4.4,0,0,0,.23.38,1.09,1.09,0,0,0,.52.12Z"/><path class="cls-2" d="M78.53,94.55h.24L78,96.88h-.22a5.23,5.23,0,0,0-.05-.71,2.47,2.47,0,0,1-1.77.75,2.23,2.23,0,0,1-1.83-.83,2.92,2.92,0,0,1-.68-1.9A5,5,0,0,1,74.72,91a3.54,3.54,0,0,1,2.77-1.5,2,2,0,0,1,1.09.28,1.78,1.78,0,0,1,.68.84,3.52,3.52,0,0,0,.36-.83h.23l-.48,2.09h-.22a2.54,2.54,0,0,0,0-.27,2.07,2.07,0,0,0-.43-1.4,1.43,1.43,0,0,0-1.13-.49,2.19,2.19,0,0,0-1.44.56A4.63,4.63,0,0,0,75,92.19a6.88,6.88,0,0,0-.52,2.4,2.45,2.45,0,0,0,.44,1.5,1.41,1.41,0,0,0,1.19.59Q77.57,96.67,78.53,94.55Z"/><path class="cls-2" d="M86.46,95h.23l-.56,1.81h-6l.07-.24h.15a1.17,1.17,0,0,0,.55-.12.72.72,0,0,0,.31-.28,4.46,4.46,0,0,0,.24-.68l1.39-4.56a3.33,3.33,0,0,0,.16-.67q0-.38-.68-.38h-.21l.07-.24h5.11l0,1.62h-.22a2.39,2.39,0,0,0-.42-.94,1,1,0,0,0-.53-.37,6.38,6.38,0,0,0-1.11-.06h-.93l-.93,3.07h.52a2.41,2.41,0,0,0,1.12-.21,1.93,1.93,0,0,0,.71-1h.24l-.85,2.81H84.7a2.68,2.68,0,0,0,.06-.54,1.19,1.19,0,0,0-.11-.6.47.47,0,0,0-.29-.21,3,3,0,0,0-.65,0h-.59l-.67,2.23a3.74,3.74,0,0,0-.16.64.41.41,0,0,0,.25.4,2.2,2.2,0,0,0,.85.12h.42a3.06,3.06,0,0,0,1.68-.38A2.83,2.83,0,0,0,86.46,95Z"/><path class="cls-2" d="M92.11,95.39a3.78,3.78,0,0,1,.3-1.38,3,3,0,0,1,.85-1.21,1.68,1.68,0,0,1,1.07-.46.93.93,0,0,1,.77.4,1.74,1.74,0,0,1,.3,1.08,3.72,3.72,0,0,1-.34,1.57,2.94,2.94,0,0,1-.85,1.13,1.65,1.65,0,0,1-1,.39,1,1,0,0,1-.77-.34A1.66,1.66,0,0,1,92.11,95.39Zm.57.61a.8.8,0,0,0,.15.49.48.48,0,0,0,.41.2q.71,0,1.17-1.34a7,7,0,0,0,.46-2.05.89.89,0,0,0-.14-.55.5.5,0,0,0-.42-.18q-.66,0-1.14,1.25A6.23,6.23,0,0,0,92.68,96Z"/><path class="cls-2" d="M100,92.45l-.07.23h-.93l-.82,3.09A7.1,7.1,0,0,1,97,98.6a2,2,0,0,1-1.46.72,1.57,1.57,0,0,1-.8-.21.6.6,0,0,1-.36-.51.39.39,0,0,1,.11-.29.37.37,0,0,1,.54,0,.41.41,0,0,1,.11.27,1,1,0,0,1,0,.13v.09a.23.23,0,0,0,.13.18.54.54,0,0,0,.31.08,1.26,1.26,0,0,0,1.07-.68,11.23,11.23,0,0,0,1-2.71l.81-3h-1l.07-.23h1l.08-.31q.71-2.63,2.31-2.63a1.06,1.06,0,0,1,.7.2.55.55,0,0,1,.24.4c0,.19-.09.28-.26.28s-.29-.12-.45-.37a.48.48,0,0,0-.41-.26,1,1,0,0,0-.69.33,4.84,4.84,0,0,0-.72,1.8l-.15.57Z"/><path class="cls-2" d="M109.25,93a2.25,2.25,0,0,1,1.19.59,1.44,1.44,0,0,1,.45,1.07,1.84,1.84,0,0,1-.28,1,2.07,2.07,0,0,1-.79.74,2.91,2.91,0,0,1-1.09.35,15.83,15.83,0,0,1-1.67.07H104.6l.07-.24h.2a1.17,1.17,0,0,0,.55-.12.71.71,0,0,0,.31-.28,4.78,4.78,0,0,0,.24-.68l1.39-4.56a3.33,3.33,0,0,0,.16-.67q0-.38-.68-.38h-.15l.07-.24h2.3a6.3,6.3,0,0,1,.95.06,2,2,0,0,1,.71.27,1.51,1.51,0,0,1,.55.54,1.34,1.34,0,0,1,.19.69,1.56,1.56,0,0,1-.55,1.16A3,3,0,0,1,109.25,93Zm-1.62.12-.76,2.5a1.81,1.81,0,0,0-.1.44q0,.48,1,.48a1.94,1.94,0,0,0,1.58-.65,2.38,2.38,0,0,0,.54-1.57,1.19,1.19,0,0,0-.23-.75,1,1,0,0,0-.53-.37,4.21,4.21,0,0,0-1-.08Zm.07-.24h.55a3.1,3.1,0,0,0,1.25-.21,1.6,1.6,0,0,0,.73-.66,2,2,0,0,0,.27-1,1.12,1.12,0,0,0-.21-.69.91.91,0,0,0-.47-.35,3.24,3.24,0,0,0-.8-.07h-.4Z"/><path class="cls-2" d="M118.57,95h.23l-.56,1.81h-6l.07-.24h.15a1.17,1.17,0,0,0,.55-.12.72.72,0,0,0,.31-.28,4.46,4.46,0,0,0,.24-.68L115,90.9a3.33,3.33,0,0,0,.16-.67q0-.38-.68-.38h-.21l.07-.24h5.11l0,1.62h-.22a2.39,2.39,0,0,0-.42-.94,1,1,0,0,0-.53-.37,6.38,6.38,0,0,0-1.11-.06h-.93l-.93,3.07h.52a2.41,2.41,0,0,0,1.12-.21,1.93,1.93,0,0,0,.71-1h.24L117,94.57h-.24a2.68,2.68,0,0,0,.06-.54,1.19,1.19,0,0,0-.11-.6.47.47,0,0,0-.29-.21,3,3,0,0,0-.65,0h-.59l-.67,2.23a3.74,3.74,0,0,0-.16.64.41.41,0,0,0,.25.4,2.2,2.2,0,0,0,.85.12h.42a3.06,3.06,0,0,0,1.68-.38A2.83,2.83,0,0,0,118.57,95Z"/><path class="cls-2" d="M123,96.54l-.07.24h-3l.07-.24h.16a1.19,1.19,0,0,0,.56-.12.69.69,0,0,0,.31-.28,4.79,4.79,0,0,0,.24-.68l1.38-4.56a3.3,3.3,0,0,0,.16-.66q0-.38-.68-.38h-.19l.07-.24h2.82l-.07.24h-.15a1.15,1.15,0,0,0-.46.09.59.59,0,0,0-.29.25,5.79,5.79,0,0,0-.29.82l-1.34,4.4A3.14,3.14,0,0,0,122,96a.4.4,0,0,0,.23.38,1.09,1.09,0,0,0,.52.12Z"/><path class="cls-2" d="M130.25,96.85H130l-2-6.08-.63,2.6q-.37,1.52-.65,2.37a2.85,2.85,0,0,1-.68,1.2,1.19,1.19,0,0,1-.8.35,1,1,0,0,1-.65-.22.7.7,0,0,1-.26-.56c0-.36.14-.54.41-.54a.38.38,0,0,1,.27.11.39.39,0,0,1,.11.29.69.69,0,0,1-.1.31.41.41,0,0,0-.05.17.18.18,0,0,0,.07.15.37.37,0,0,0,.22.05,1.09,1.09,0,0,0,.88-.62,13.85,13.85,0,0,0,1-3.23l.54-2.26q.15-.6.15-.66a.38.38,0,0,0-.17-.3,1.71,1.71,0,0,0-.85-.14l.06-.24h1.66l1.84,5.59.44-1.83a14.34,14.34,0,0,1,1-3.33,1,1,0,0,1,.83-.52.66.66,0,0,1,.44.13.42.42,0,0,1,.16.34.37.37,0,0,1-.12.29.41.41,0,0,1-.28.11.45.45,0,0,1-.37-.25.25.25,0,0,0-.21-.15q-.22,0-.46.59a26.61,26.61,0,0,0-.81,2.93Z"/><path class="cls-2" d="M140.09,93.8,140,94a1.13,1.13,0,0,0-.46.07.44.44,0,0,0-.2.19,3.74,3.74,0,0,0-.2.57l-.49,1.6q-.37-.33-.48-.33a.22.22,0,0,0-.13.06,3,3,0,0,1-1.9.73,2.24,2.24,0,0,1-1.75-.76,2.88,2.88,0,0,1-.68-2,5,5,0,0,1,1.19-3.2,3.6,3.6,0,0,1,2.89-1.47,2,2,0,0,1,1.85.94l.35-.66h.22l-.44,2.15h-.22c0-.16,0-.31,0-.43a2.11,2.11,0,0,0-.18-.94,1.47,1.47,0,0,0-.58-.6,1.75,1.75,0,0,0-.92-.24,2.16,2.16,0,0,0-1.17.35,3.33,3.33,0,0,0-1,1,7,7,0,0,0-.77,1.72,6.41,6.41,0,0,0-.35,1.93,2,2,0,0,0,.49,1.52,1.65,1.65,0,0,0,1.18.47,1.78,1.78,0,0,0,1.77-1.48l.07-.24a2.31,2.31,0,0,0,.12-.53c0-.26-.23-.39-.68-.39h-.2l.07-.24Z"/><path class="cls-2" d="M141,96.38a.56.56,0,0,1,1.12,0,.54.54,0,0,1-.16.4.56.56,0,0,1-.79,0A.55.55,0,0,1,141,96.38Z"/></g></g></g></svg>