<svg xmlns="http://www.w3.org/2000/svg" viewBox="0 0 39.66 39.66"><defs><style>.cls-1{fill:#e2c675;}</style></defs><title>GOLD FEATHER SEAL</title><g id="Layer_2" data-name="Layer 2"><g id="Layer_1-2" data-name="Layer 1"><path class="cls-1" d="M24.81,23.09l.1-.12C24.85,23,24.8,23,24.81,23.09Z"/><path class="cls-1" d="M30.15,16.36c-.48,1.08-2.09,2.08-3.2,2.67a1.17,1.17,0,0,0-.33-.79,5.83,5.83,0,0,0-.78-.63,5.06,5.06,0,0,1-1.2-1.31,3.37,3.37,0,0,0,.55,1l-2.1-1.07,1.67,1.28a3.74,3.74,0,0,1-2.28-.71A3.64,3.64,0,0,0,24,18.24a1.34,1.34,0,0,1-1.21-.29l.26.82a1.54,1.54,0,0,1-1-.72,1.11,1.11,0,0,0-.05.82,2.8,2.8,0,0,0-1.4-.18,2.65,2.65,0,0,1-.65.06,2,2,0,0,1-.71-.3,21.53,21.53,0,0,0-5.59-1.91,25.66,25.66,0,0,0,2.09,2,3.57,3.57,0,0,1-2.15-1.44,2.7,2.7,0,0,0-2.27-1.14,12.45,12.45,0,0,1,1.46,1.65c-.75-.26-1.14-1.06-1.7-1.62A3.19,3.19,0,0,0,9.14,15l.89.85-1-.3.5,2A8.85,8.85,0,0,0,10,19.24a4.5,4.5,0,0,0,3.28,2.46,4,4,0,0,0-1.05.09,1.74,1.74,0,0,0,1.17.46l3.24.4-1.26.21a2.25,2.25,0,0,0,1.41.47A7.58,7.58,0,0,0,19.48,23a3.5,3.5,0,0,1-1.38,1.07,2.79,2.79,0,0,0,2.81-.2,27.26,27.26,0,0,0,2.32-1.83,4.24,4.24,0,0,1-2.09,2.26,2.53,2.53,0,0,0,1.87-1c.48-.54.86-1.18,1.37-1.69,0,.33-.26.57-.41.86a1.31,1.31,0,0,0-.2.94c.08.3.36.53.42.84a1.9,1.9,0,0,1,1.25-2.2,3,3,0,0,1-.53.88l.09,0a1.49,1.49,0,0,0,1-.86,2.25,2.25,0,0,1-.44,1.42,6.71,6.71,0,0,1-1,1.1c.12-.11.3,0,.47,0a1.61,1.61,0,0,0,.93-.66,7.94,7.94,0,0,0,1.58-3.25c.24.15.19.52.11.79l-.55,1.9a.83.83,0,0,0,.63-.32A2.35,2.35,0,0,0,28.31,21a3,3,0,0,0-.64-1.27,13,13,0,0,0,2.71-2.53C31.13,15.64,30.15,16.36,30.15,16.36Z"/><path class="cls-1" d="M19.83,39.66a7.91,7.91,0,0,1-5.61-2.32L2.32,25.44a7.94,7.94,0,0,1,0-11.22l11.9-11.9a7.94,7.94,0,0,1,11.22,0l11.9,11.9a7.94,7.94,0,0,1,0,11.22l-11.9,11.9A7.91,7.91,0,0,1,19.83,39.66Zm-5.51-2.42a7.8,7.8,0,0,0,11,0l11.9-11.9a7.8,7.8,0,0,0,0-11L25.34,2.42a7.8,7.8,0,0,0-11,0L2.42,14.32a7.8,7.8,0,0,0,0,11Z"/><path class="cls-1" d="M15.93,39a7.94,7.94,0,0,1-7.15-4.48L1.45,19.36A8,8,0,0,1,5.14,8.77L20.29,1.45A8,8,0,0,1,30.89,5.14l7.32,15.15a8,8,0,0,1-3.69,10.59L19.36,38.21A7.89,7.89,0,0,1,15.93,39Zm-7-4.54A7.8,7.8,0,0,0,19.3,38.08l15.15-7.32a7.81,7.81,0,0,0,3.63-10.41L30.76,5.2A7.81,7.81,0,0,0,20.35,1.57L5.2,8.9A7.81,7.81,0,0,0,1.57,19.3Z"/><path class="cls-1" d="M12.43,37.08a8,8,0,0,1-7.87-7L2.63,13.34a8,8,0,0,1,7-8.79L26.31,2.63a8,8,0,0,1,8.79,7L37,26.31a7.94,7.94,0,0,1-7,8.79L13.34,37A8,8,0,0,1,12.43,37.08ZM4.69,30a7.81,7.81,0,0,0,8.63,6.85L30,35a7.81,7.81,0,0,0,6.85-8.63L35,9.61a7.81,7.81,0,0,0-8.63-6.85L9.61,4.69a7.81,7.81,0,0,0-6.85,8.63Z"/><path class="cls-1" d="M26.2,37.81a7.93,7.93,0,0,1-1.73-.19L8,33.94a7.94,7.94,0,0,1-6-9.47L5.72,8a8,8,0,0,1,9.47-6L31.61,5.72a8,8,0,0,1,6,9.47L33.94,31.61a8,8,0,0,1-7.74,6.2ZM2.11,24.48l.07,0a7.8,7.8,0,0,0,5.9,9.31L24.5,37.48a7.81,7.81,0,0,0,9.31-5.9l3.68-16.42a7.81,7.81,0,0,0-5.9-9.31L15.16,2.17a7.81,7.81,0,0,0-9.31,5.9L2.17,24.5Z"/></g></g></svg>