<?xml version="1.0" encoding="UTF-8" standalone="no"?>
<svg width="75px" height="75px" viewBox="0 0 75 75" version="1.1" xmlns="http://www.w3.org/2000/svg" xmlns:xlink="http://www.w3.org/1999/xlink">
    <!-- Generator: Sketch 41.2 (35397) - http://www.bohemiancoding.com/sketch -->
    <title>instagram</title>
    <desc>Created with Sketch.</desc>
    <defs></defs>
    <g id="Page-1" stroke="none" stroke-width="1" fill="none" fill-rule="evenodd">
        <g id="instagram" fill="#000000">
            <g id="Layer_2">
                <g id="Layer_1-2">
                    <g id="_Group_">
                        <path d="M37.5,4 C56.0015391,4 71,18.9984609 71,37.5 C71,56.0015391 56.0015391,71 37.5,71 C18.9984609,71 4,56.0015391 4,37.5 C4.02204103,19.0075983 19.0075983,4.02204103 37.5,4 L37.5,4 Z M37.5,8.8817842e-16 C16.7893219,-1.26816328e-15 2.53632657e-15,16.7893219 0,37.5 C-2.53632657e-15,58.2106781 16.7893219,75 37.5,75 C58.2106781,75 75,58.2106781 75,37.5 C75,27.5543816 71.0491185,18.0161099 64.0165043,10.9834957 C56.9838901,3.95088151 47.4456184,6.08993485e-16 37.5,0 L37.5,8.8817842e-16 Z" id="Shape"></path>
                    </g>
                    <g id="_Group_2" transform="translate(19.000000, 20.000000)">
                        <path d="M26,0.28 L9.88,0.28 C4.87143663,0.329481422 0.846694146,4.42130295 0.88,9.43 L0.88,25.13 C0.846694146,30.1386971 4.87143663,34.2305186 9.88,34.28 L26,34.28 C31.0085634,34.2305186 35.0333059,30.1386971 35,25.13 L35,9.43 C35.0333059,4.42130295 31.0085634,0.329481422 26,0.28 L26,0.28 Z M31.87,24.9 C31.8978452,28.3584768 29.1282364,31.1906251 25.67,31.24 L10.16,31.24 C6.71746311,31.1689501 3.9718959,28.3431553 4,24.9 L4,9.66 C3.97215479,6.20152319 6.74176355,3.36937487 10.2,3.32 L25.7,3.32 C29.1582364,3.36937487 31.9278452,6.20152319 31.9,9.66 L31.87,24.9 Z" id="_Compound_Path_"></path>
                        <path d="M17.91,8.55 C14.3635798,8.47686247 11.1254791,10.5568611 9.71734433,13.812564 C8.30920954,17.0682669 9.01102495,20.8523316 11.4929938,23.3865524 C13.9749627,25.9207733 17.7435868,26.7012625 21.0279162,25.3612531 C24.3122456,24.0212436 26.4592459,20.8271741 26.46,17.28 C26.4839942,14.9884927 25.5966436,12.781321 23.9931809,11.1441012 C22.3897182,9.50688134 20.2015099,8.57374556 17.91,8.55 L17.91,8.55 Z M17.91,22.91 C15.6233975,22.9546846 13.536977,21.611673 12.6307955,19.5118199 C11.7246141,17.4119668 12.1787613,14.9725855 13.77991,13.3395299 C15.3810587,11.7064743 17.8110053,11.2042888 19.9283278,12.0688658 C22.0456502,12.9334428 23.4295634,14.992961 23.43,17.28 C23.4486688,18.7607188 22.8769381,20.187922 21.8411477,21.2462296 C20.8053573,22.3045372 19.3907779,22.9068247 17.91,22.92 L17.91,22.91 Z" id="_Compound_Path_2"></path>
                        <ellipse id="_Path_" cx="26.92" cy="8.08" rx="1.93" ry="1.97"></ellipse>
                    </g>
                </g>
            </g>
        </g>
    </g>
</svg>