<?xml version="1.0" encoding="UTF-8" standalone="no"?>
<svg width="75px" height="75px" viewBox="0 0 75 75" version="1.1" xmlns="http://www.w3.org/2000/svg" xmlns:xlink="http://www.w3.org/1999/xlink">
    <!-- Generator: Sketch 41.2 (35397) - http://www.bohemiancoding.com/sketch -->
    <title>twitter</title>
    <desc>Created with Sketch.</desc>
    <defs></defs>
    <g id="Page-1" stroke="none" stroke-width="1" fill="none" fill-rule="evenodd">
        <g id="twitter" fill="#000000">
            <g id="Layer_2">
                <g id="Layer_1-2">
                    <g id="_Group_">
                        <path d="M37.5,4 C56.0015391,4 71,18.9984609 71,37.5 C71,56.0015391 56.0015391,71 37.5,71 C18.9984609,71 4,56.0015391 4,37.5 C4.02204103,19.0075983 19.0075983,4.02204103 37.5,4 L37.5,4 Z M37.5,8.8817842e-16 C16.7893219,-1.26816328e-15 2.53632657e-15,16.7893219 0,37.5 C-2.53632657e-15,58.2106781 16.7893219,75 37.5,75 C58.2106781,75 75,58.2106781 75,37.5 C75,27.5543816 71.0491185,18.0161099 64.0165043,10.9834957 C56.9838901,3.95088151 47.4456184,6.08993485e-16 37.5,0 L37.5,8.8817842e-16 Z" id="Shape"></path>
                    </g>
                    <path d="M55.34,24.57 C53.8675588,25.466607 52.24997,26.0994294 50.56,26.44 C49.1558315,24.8890535 47.1621557,24.0029753 45.07,24 C40.8653894,24.0548858 37.4999768,27.5053288 37.55,31.71 C37.5469413,32.3019452 37.6106778,32.8923459 37.74,33.47 C31.6507657,33.1414112 25.9986189,30.2041898 22.23,25.41 C21.5666502,26.5950567 21.2220929,27.9319389 21.23,29.29 C21.2184963,31.8517752 22.4720756,34.254157 24.58,35.71 C23.3788495,35.6593902 22.2082486,35.3161054 21.17,34.71 L21.17,34.8 C21.1351017,38.4202402 23.6364123,41.5718915 27.17,42.36 C26.519397,42.5438426 25.846062,42.6347428 25.17,42.63 C24.6932338,42.629752 24.2176353,42.582862 23.75,42.49 C24.6930496,45.591019 27.510175,47.7441077 30.75,47.84 C28.1061257,49.9765737 24.8092671,51.1414167 21.41,51.14 C20.8116772,51.1389473 20.2139496,51.1022154 19.62,51.03 C23.0418294,53.2870109 27.050852,54.4900654 31.15,54.49 C44.99,54.49 52.55,42.74 52.55,32.54 L52.55,31.54 C54.0286268,30.4410667 55.2986475,29.086378 56.3,27.54 C54.9411683,28.1876224 53.4909269,28.6226948 52,28.83 C53.5922331,27.861048 54.7789562,26.3474432 55.34,24.57 L55.34,24.57 Z" id="Twitter"></path>
                </g>
            </g>
        </g>
    </g>
</svg>