<?xml version="1.0" encoding="UTF-8" standalone="no"?>
<svg width="75px" height="75px" viewBox="0 0 75 75" version="1.1" xmlns="http://www.w3.org/2000/svg" xmlns:xlink="http://www.w3.org/1999/xlink">
    <!-- Generator: Sketch 41.2 (35397) - http://www.bohemiancoding.com/sketch -->
    <title>vimeo</title>
    <desc>Created with Sketch.</desc>
    <defs></defs>
    <g id="Page-1" stroke="none" stroke-width="1" fill="none" fill-rule="evenodd">
        <g id="vimeo" fill="#000000">
            <g id="Layer_2">
                <g id="Layer_1-2">
                    <g id="_Group_">
                        <path d="M37.5,4 C56.0015391,4 71,18.9984609 71,37.5 C71,56.0015391 56.0015391,71 37.5,71 C18.9984609,71 4,56.0015391 4,37.5 C4.02204103,19.0075983 19.0075983,4.02204103 37.5,4 L37.5,4 Z M37.5,8.8817842e-16 C16.7893219,-1.26816328e-15 2.53632657e-15,16.7893219 0,37.5 C-2.53632657e-15,58.2106781 16.7893219,75 37.5,75 C58.2106781,75 75,58.2106781 75,37.5 C75,27.5543816 71.0491185,18.0161099 64.0165043,10.9834957 C56.9838901,3.95088151 47.4456184,6.08993485e-16 37.5,0 L37.5,8.8817842e-16 Z" id="Shape"></path>
                    </g>
                    <path d="M49.73,23.69 C44.6166667,23.5233333 41.1533333,26.3533333 39.34,32.18 C40.200187,31.8124265 41.1246091,31.6187056 42.06,31.61 C43.93,31.61 44.75,32.61 44.53,34.71 C44.4166667,35.9633333 43.5933333,37.7866667 42.06,40.18 C40.5266667,42.5733333 39.3733333,43.77 38.6,43.77 C37.6066667,43.77 36.7,41.92 35.88,38.22 C35.6066667,37.1333333 35.1133333,34.3566667 34.4,29.89 C33.7333333,25.7566667 31.9733333,23.8266667 29.12,24.1 C27.9066667,24.2133333 26.0933333,25.3033333 23.68,27.37 C21.8933333,28.9433333 20.1033333,30.5166667 18.31,32.09 L20,34.3 C20.8730858,33.587063 21.8469959,33.0074348 22.89,32.58 C24.1566667,32.58 25.34,34.54 26.44,38.46 L29.44,49.24 C30.92,53.16 32.7333333,55.1166667 34.88,55.11 C38.3466667,55.11 42.58,51.9 47.58,45.48 C52.4133333,39.3333333 54.9133333,34.49 55.08,30.95 C55.3066667,26.2233333 53.5233333,23.8033333 49.73,23.69 Z" id="_Path_"></path>
                </g>
            </g>
        </g>
    </g>
</svg>