<svg xmlns="http://www.w3.org/2000/svg" viewBox="0 0 40.64 40.64"><defs><style>.cls-1{fill:#fff;}</style></defs><title>WHITE MEDALLION</title><g id="Layer_2" data-name="Layer 2"><g id="Layer_1-2" data-name="Layer 1"><path class="cls-1" d="M40.64,16a8.55,8.55,0,0,0-7.55-8.5,8.55,8.55,0,0,0-12.77-6.4A8.55,8.55,0,0,0,7.55,7.54a8.55,8.55,0,0,0-6.4,12.78,8.55,8.55,0,0,0,6.4,12.77,8.55,8.55,0,0,0,12.77,6.4,8.55,8.55,0,0,0,12.78-6.4,8.55,8.55,0,0,0,6.39-12.77A8.5,8.5,0,0,0,40.64,16Zm-2.87-5.7a8.07,8.07,0,0,1,1.42,9.48,8.66,8.66,0,0,0-1.06-1.29,8.57,8.57,0,0,0-9.72-1.67l2.24-2.24a8.51,8.51,0,0,0,2.51-6.06c0-.17,0-.33,0-.5A8,8,0,0,1,37.77,10.35ZM32.63,32.62a8,8,0,0,1-6.25-2.33L22.1,26,20.68,24.6l3.92-3.92,5.7,5.7a8,8,0,0,1,2.36,5.7C32.65,32.26,32.64,32.44,32.63,32.62ZM10.35,26.38l5.7-5.7L20,24.6,18.54,26l-4.28,4.28A8,8,0,0,1,8,32.62,8,8,0,0,1,10.35,26.38ZM8,8l.55,0a8,8,0,0,1,5.7,2.36L20,16,16,20l-1.42-1.42-4.28-4.28A8,8,0,0,1,8,8.56C8,8.38,8,8.2,8,8Zm24.64.55a8,8,0,0,1-2.36,5.7L24.6,20,20.68,16l5.7-5.7A8,8,0,0,1,32.07,8l.55,0C32.64,8.2,32.65,8.38,32.65,8.56ZM20.32,16.4l3.92,3.92-3.92,3.92L16.4,20.32Zm0-.72L18.9,14.26a8.06,8.06,0,0,1,0-11.4,8.11,8.11,0,0,1,1.42-1.13,8.11,8.11,0,0,1,1.42,1.13,8.06,8.06,0,0,1,0,11.4Zm-4.63,4.63-1.42,1.42a8.06,8.06,0,0,1-11.4,0,8.11,8.11,0,0,1-1.13-1.42,8,8,0,0,1,6.82-3.78,8,8,0,0,1,5.7,2.36ZM20.32,25l1.42,1.42A8,8,0,0,1,20.32,38.9,8.05,8.05,0,0,1,18.9,26.38ZM25,20.32l1.42-1.42A8,8,0,0,1,38.9,20.32a8.11,8.11,0,0,1-1.13,1.42,8.06,8.06,0,0,1-11.4,0ZM24.6.51a8,8,0,0,1,8,7l-.5,0A8.5,8.5,0,0,0,26,10l-2.24,2.24A8.54,8.54,0,0,0,22.1,2.51a8.65,8.65,0,0,0-1.29-1.06A8,8,0,0,1,24.6.51ZM10.35,2.87a8.07,8.07,0,0,1,9.48-1.42,8.65,8.65,0,0,0-1.29,1.06,8.54,8.54,0,0,0-1.68,9.72L14.62,10A8.51,8.51,0,0,0,8.57,7.48l-.5,0A8,8,0,0,1,10.35,2.87ZM.51,16a8,8,0,0,1,7-8A8.54,8.54,0,0,0,10,14.62l2.24,2.24a8.57,8.57,0,0,0-9.72,1.67,8.66,8.66,0,0,0-1.06,1.29A8,8,0,0,1,.51,16ZM2.87,30.29a8.07,8.07,0,0,1-1.42-9.48A8.64,8.64,0,0,0,2.51,22.1a8.54,8.54,0,0,0,9.71,1.68L10,26a8.54,8.54,0,0,0-2.48,6.55A8,8,0,0,1,2.87,30.29Zm7.48,7.48a8,8,0,0,1-2.28-4.64,8.54,8.54,0,0,0,6.55-2.48l2.24-2.24a8.54,8.54,0,0,0,3,10.77A8.07,8.07,0,0,1,10.35,37.77Zm19.95,0a8.07,8.07,0,0,1-9.48,1.41,8.55,8.55,0,0,0,3-10.77L26,30.65a8.54,8.54,0,0,0,6.06,2.5l.5,0A8,8,0,0,1,30.29,37.77ZM40.13,24.6a8,8,0,0,1-7,8c0-.17,0-.33,0-.5A8.51,8.51,0,0,0,30.65,26l-2.23-2.23a8.54,8.54,0,0,0,9.71-1.68,8.64,8.64,0,0,0,1.06-1.29A8,8,0,0,1,40.13,24.6Z"/></g></g></svg>