<svg xmlns="http://www.w3.org/2000/svg" viewBox="0 0 41.52 40.9"><defs><style>.cls-1{fill:#fff;opacity:0.5;}</style></defs><title>WHITE FEATHER ICON</title><g id="Layer_2" data-name="Layer 2"><g id="Layer_1-2" data-name="Layer 1"><path class="cls-1" d="M13,32.15a12.32,12.32,0,0,1,3.22.73c1.3.45,2.57,1,3.84,1.53a4.69,4.69,0,0,0,2.4.34,5.33,5.33,0,0,0,1.63-.52c.6-.29,1.19-.6,1.78-.92a1.91,1.91,0,0,1,.93-.27l.2,0a.14.14,0,0,1-.08.09,6.85,6.85,0,0,0-1.32.68,10.72,10.72,0,0,1-1.42.79,4.94,4.94,0,0,1-2.08.42A11.65,11.65,0,0,1,20,34.76a7.27,7.27,0,0,0-2.34-.12.19.19,0,0,0-.14.13s.08.13.13.15a5.37,5.37,0,0,0,.57.17,5.76,5.76,0,0,1,1.55.55c.28.16.55.33.84.48s.69.3,1,.48l2,1.13a4.34,4.34,0,0,0,1.68.62,3.74,3.74,0,0,0,2-.34.73.73,0,0,1,.38-.06,3.78,3.78,0,0,0,1.67-.12,1.06,1.06,0,0,1,.21,0,.19.19,0,0,1-.07.11,4.42,4.42,0,0,1-1.83.82,8.64,8.64,0,0,1-2.05.09,1.09,1.09,0,0,0-.19,0v.06l.17.05c.37.06.74.09,1.11.17a6.68,6.68,0,0,0,2.12.22,3.35,3.35,0,0,0,.84-.18A5.18,5.18,0,0,0,31.34,38a12.2,12.2,0,0,0,1.59-1.72,1.57,1.57,0,0,1,.18-.18c0,.05,0,.08,0,.09-.08.3-.18.59-.25.89-.19.76-.34,1.53-.52,2.29a2.25,2.25,0,0,1-.69,1.31s0,.09-.06.13l.06,0c.13-.14.27-.28.4-.43a3.37,3.37,0,0,0,.54-1.28c.2-.74.39-1.5.6-2.25,0-.07.05-.14.08-.21h0a1.26,1.26,0,0,1,.07.17c.09.34.17.68.27,1a5.27,5.27,0,0,1,.22,2.27.19.19,0,0,0,0,.13s.09,0,.12,0a.65.65,0,0,0,.3-.53,8.14,8.14,0,0,0,0-1.06c-.08-.67-.19-1.35-.25-2a2.19,2.19,0,0,1,.3-1.44.41.41,0,0,1,.2-.18,1.57,1.57,0,0,1,.61-.06c.81.16,1.63.29,2.42.49a3,3,0,0,0,2.22-.2l1.06-.53c.16-.08.33-.12.49-.2a.3.3,0,0,0,.13-.18c0-.1-.05-.15-.13-.16l-.09,0c-.35,0-.7-.09-1.05-.11-.85-.06-1.72-.11-2.58-.23a7.4,7.4,0,0,1-1.19-.3c-.31-.09-.38-.27-.35-.64a2.46,2.46,0,0,0,0-.42A4.46,4.46,0,0,0,35.68,31a13.41,13.41,0,0,0-1.09-1.77,4.91,4.91,0,0,1-.72-1.56A2.69,2.69,0,0,1,34,26a.78.78,0,0,1,.62-.53c.07,0,.15,0,.16-.12s0-.17-.08-.17a.5.5,0,0,0-.3.08,2,2,0,0,0-.66.9,4.93,4.93,0,0,0-.32,1.56c0,.18,0,.36,0,.56l-.06,0-.08-.12a7,7,0,0,0-1-1.33,14.7,14.7,0,0,0-2.16-1.93,3.34,3.34,0,0,1-.73-.75,1.47,1.47,0,0,1-.36-.93c0-.11-.09-.13-.16-.07a.44.44,0,0,0-.14.23,1.15,1.15,0,0,0,0,.37,2.17,2.17,0,0,0,.74,1.19c.54.52,1.09,1,1.64,1.55a2.63,2.63,0,0,1,.83,1.83,5,5,0,0,1-.65,2.77,1.15,1.15,0,0,1-.2.2c0-.15,0-.23,0-.32,0-.24-.06-.48-.12-.72a9.1,9.1,0,0,0-1-2.28,14.79,14.79,0,0,1-1.12-2.19,17.24,17.24,0,0,0-.93-2,1.31,1.31,0,0,0-.58-.59,5.9,5.9,0,0,1-.74-.51s-.07-.09-.11-.12l-.55-.48C25.8,22,25.7,22,25.64,22a3.51,3.51,0,0,0-.93-.66.65.65,0,0,1-.26-.24c-.31-.5-.6-1-.9-1.53-.07-.12-.21-.18-.31-.27A1.13,1.13,0,0,1,23,19c-.25-.51-.47-1-.7-1.57a2.81,2.81,0,0,0-1.86-1.56c-.3-.1-.63-.17-.92-.3s-.48-.26-.73-.39a1,1,0,0,0-.32-.1c-.11,0-.18.07-.13.16a.68.68,0,0,0,.17.21,5,5,0,0,1,1.4,2,4.1,4.1,0,0,1-.35,3.55,8.74,8.74,0,0,1-1,1.34.23.23,0,0,1-.17.07.76.76,0,0,1-.31-.09,2.18,2.18,0,0,1-1.16-1.68.87.87,0,0,0,0-.14,9.38,9.38,0,0,1-.33-2.25,9.23,9.23,0,0,0-.61-3.38,4.59,4.59,0,0,0-1.68-2.2,2.93,2.93,0,0,0-.6-.26s-.1,0-.16,0,0,.1,0,.13a3.1,3.1,0,0,1,.94,1.8,7.79,7.79,0,0,1-.07,3A3.68,3.68,0,0,1,14,18.52a1.06,1.06,0,0,1-.13.15.71.71,0,0,1-.15-.13c-.15-.25-.3-.52-.44-.78a5.47,5.47,0,0,1-.75-2.52c0-.93-.07-1.84-.1-2.75a2,2,0,0,0-1-1.88.56.56,0,0,1-.21-.2A3.06,3.06,0,0,0,10,9.15.51.51,0,0,1,9.8,9,1.86,1.86,0,0,0,9,8.57L7.76,8.15l-.12,0a4.59,4.59,0,0,1-1.28-.43,1.73,1.73,0,0,1-.86-.78c-.27-.44-.57-.87-.85-1.32A2.87,2.87,0,0,1,4.33,5C4.14,4.35,4,3.72,3.86,3.11S3.56,1.9,3.35,1.3A3,3,0,0,0,2.53.12.31.31,0,0,0,2.15,0a.23.23,0,0,0-.08.34,1.57,1.57,0,0,1,.13.83,9.77,9.77,0,0,1-.63,2.28A5.88,5.88,0,0,1,1,4.71a2.8,2.8,0,0,0-.18.4A4.75,4.75,0,0,0,.56,7.48,2.21,2.21,0,0,1,.34,8.66a2.91,2.91,0,0,0-.21,2.19,5.92,5.92,0,0,0,.65,1.33,2.68,2.68,0,0,1,.45,1.47,15.34,15.34,0,0,0,.11,1.81,3.19,3.19,0,0,0,.72,1.72c.2.23,1.57,1.82,2,2.23s.63.56.93.85a2.86,2.86,0,0,1,.75,1.43c.13.49.26,1,.44,1.47a3.11,3.11,0,0,0,1.56,1.78.93.93,0,0,1,.29.25c.25.32.51.64.74,1A8.76,8.76,0,0,0,12.09,29a4.34,4.34,0,0,1,1.41,1c.17.19.34.37.52.55.34.34.7.68,1.07,1a2.12,2.12,0,0,1-.29,0c-.25,0-.51-.1-.76-.13a3.5,3.5,0,0,0-1.44.06A1,1,0,0,0,12,32a.21.21,0,0,0,0,.2s.13,0,.2,0A5.73,5.73,0,0,1,13,32.15Zm.23-3,.56.12c.7.16,1.39.35,2.08.45.85.12,1.69.16,2.52.2.52,0,1,0,1.56,0a5.5,5.5,0,0,1,1,.27s.07.06.11.1c-1.21.16-2.43.28-3.65.34A7,7,0,0,1,15,30.38a4.21,4.21,0,0,1-1.69-1.1l-.05-.07A.25.25,0,0,1,13.2,29.15ZM17.4,32a12.83,12.83,0,0,1-1.74-.65,1.4,1.4,0,0,1-.25-.17v0l.28.07a5.55,5.55,0,0,0,2.13.13c1.24-.12,2.49-.21,3.74-.21a5,5,0,0,1,2.35.52c.09,0,.21.09.22.25L24,32c-.77.11-1.55.25-2.34.29A14.79,14.79,0,0,1,17.4,32Zm1.29.62h.22a15.72,15.72,0,0,0,1.62.06c.95-.06,1.87-.19,2.79-.31l1.28-.14a.79.79,0,0,1,.23,0v0c-.13,0-.27.05-.39.09l-1.37.44a6.58,6.58,0,0,1-3,.29,9.11,9.11,0,0,1-1.1-.28,1.53,1.53,0,0,1-.3-.17ZM15,30.72l0-.05.43.08a11.28,11.28,0,0,0,2.9.06l2.14-.15a5.94,5.94,0,0,1,.87,0,2.14,2.14,0,0,1,.37.1l0,.05c-.71.09-1.48.14-2.23.19s-1.74.09-2.63.1a4.1,4.1,0,0,1-1.48-.22A2.34,2.34,0,0,1,15,30.72Zm-4.66-3.33,0,0,.09,0a5.83,5.83,0,0,0,2.43.79c.75.08,1.49.11,2.22.13a13.48,13.48,0,0,1,2.43.22,3.5,3.5,0,0,1,.82.29c.32.16.63.35.95.54a2.64,2.64,0,0,1,.24.18v0a1.71,1.71,0,0,1-.27.06,15.09,15.09,0,0,1-4.64-.36c-.51-.13-1-.34-1.53-.51s-1.08-.31-1.6-.53a5.43,5.43,0,0,1-.93-.59A1.37,1.37,0,0,1,10.39,27.38Zm-1-1.46.14,0a10.8,10.8,0,0,0,3.89.87,7.09,7.09,0,0,1,2.28.43,10.31,10.31,0,0,1,1.08.57s.06.07.12.13c-.23,0-.43,0-.62,0-.61,0-1.23.08-1.85.07a8,8,0,0,1-3.3-.61A4.22,4.22,0,0,1,9.59,26.3,2.45,2.45,0,0,1,9.37,25.92ZM6.61,23.14c.12.09.25.16.37.26a6,6,0,0,0,2.39,1.07c1.07.23,2.14.42,3.19.56a2.34,2.34,0,0,1,1.18.53l1.11.92a1.37,1.37,0,0,1,.15.17l0,0h-.24c-1-.08-1.92-.19-2.9-.31a6,6,0,0,1-2.63-.89,23.9,23.9,0,0,1-2.08-1.6,3.25,3.25,0,0,1-.44-.51A.5.5,0,0,1,6.61,23.14Zm5.54,1.19a1,1,0,0,1,.62.38v.09l-.18,0A16.05,16.05,0,0,1,9,24.18a5.15,5.15,0,0,1-2.51-1.61,2.23,2.23,0,0,1-.21-.35l.06,0,.42.41a3.47,3.47,0,0,0,1.24.78,12.17,12.17,0,0,0,2.25.54C10.86,24,11.51,24.19,12.16,24.33Zm-1.5-.53a11.6,11.6,0,0,1-2.44-.49,3.81,3.81,0,0,1-1.54-1,2.06,2.06,0,0,1-.57-.85s0-.1,0-.17a3.89,3.89,0,0,0,.46.26c.54.22,1.09.41,1.63.61.89.33,1.77.63,2.63.93a2,2,0,0,1,.85.61,2.16,2.16,0,0,1,.15.24ZM1.57,13.92a2,2,0,0,1,.08-.49h.07c.11.2.21.41.32.6a15.74,15.74,0,0,0,1.7,2.5l.34.35a12.24,12.24,0,0,0,2.65,1.85,8.51,8.51,0,0,1,2.77,2.54,4.86,4.86,0,0,1,.41.9c0,.11,0,.16-.12.16a.65.65,0,0,1-.19,0c-.77-.23-1.56-.46-2.35-.74a4.85,4.85,0,0,1-1.68-1.23c-.9-.87-3.15-3.44-3.4-3.8a3,3,0,0,1-.47-1.33C1.65,14.79,1.59,14.35,1.57,13.92Zm5,3.45a1.57,1.57,0,0,1,.25.27.43.43,0,0,1,.06.25,16.84,16.84,0,0,1-2.08-1.45A12.3,12.3,0,0,1,3.1,14.37l.06-.07a4.69,4.69,0,0,1,.4.29c.56.51,1.23,1.24,1.63,1.63l.35.31ZM6,16.59a2.14,2.14,0,0,1-.67-.47,3.9,3.9,0,0,1-.77-1,6.27,6.27,0,0,1,1,.83A1.28,1.28,0,0,1,6,16.59Zm1.14,1.88a2,2,0,0,1,.21.21,7.8,7.8,0,0,1-3-1.89,8.94,8.94,0,0,1-1.82-2.7c.08.09.16.17.23.26a21.41,21.41,0,0,0,1.84,2.2,11.82,11.82,0,0,0,1.21.93C6.29,17.79,6.73,18.14,7.18,18.47Zm-6-9.79a10.26,10.26,0,0,0,2.28,3,4,4,0,0,1,.81,1.21c.24.52.47,1,.69,1.57a1.33,1.33,0,0,1,0,.42,2.13,2.13,0,0,1-.38-.13A15.26,15.26,0,0,1,2,13,6.82,6.82,0,0,1,.49,11.19,1.94,1.94,0,0,1,.31,9.91,3.42,3.42,0,0,1,.85,8.58L1,8.43A1.35,1.35,0,0,1,1.17,8.68Zm.27-3.9c0,.25,0,.5,0,.75A5.17,5.17,0,0,0,2,8.42c.22.37.5.7.76,1.05A4.53,4.53,0,0,1,3.57,11a2.33,2.33,0,0,1,0,.3,6.68,6.68,0,0,1-2.31-3,4.52,4.52,0,0,1,.1-3.45ZM2.88,1.54a10.33,10.33,0,0,1,.68,2.84,9.43,9.43,0,0,0,.9,2.93,8.43,8.43,0,0,1,.79,2.36c0,.18,0,.36.05.55a1.55,1.55,0,0,1-.47,1.17c-.21.22-.34.2-.46-.06A13.33,13.33,0,0,0,2.74,8.78a5.16,5.16,0,0,1-1-4.44c.17-.6.38-1.2.55-1.8.11-.4.14-.82.21-1.22,0,0,0-.1,0-.15l.06,0A2.51,2.51,0,0,1,2.88,1.54ZM4.64,7.15c-.19-.43-.35-.88-.51-1.32a1.27,1.27,0,0,1,0-.27h.05a.93.93,0,0,1,.12.16c.42.92.89,1.82,1.33,2.72a5,5,0,0,1,.55,2,3.2,3.2,0,0,1-.35,1.37c-.15.34-.32.66-.5,1-.08.15-.16.15-.26,0a.6.6,0,0,1,0-.7,3.5,3.5,0,0,0,.49-1.32A4.49,4.49,0,0,0,5.4,9.25,10.34,10.34,0,0,0,4.64,7.15ZM7.58,10.1c-.15.63-.28,1.28-.43,1.92a5.86,5.86,0,0,0-.09,1.48c0,.45,0,1.5,0,1.54s0,.34,0,.51a1.79,1.79,0,0,1-.11.4c-.05.13-.12.14-.21,0s-.22-.31-.32-.47a11.69,11.69,0,0,1-.65-1.33c-.05-.12-.12-.23-.17-.35a.6.6,0,0,1,0-.52,7.42,7.42,0,0,0,.78-2.07A3.67,3.67,0,0,0,6.2,9.37c-.14-.4-.29-.8-.43-1.21,0-.08,0-.17-.07-.28a2.17,2.17,0,0,1,.91.4,4.88,4.88,0,0,1,.62.56A1.34,1.34,0,0,1,7.58,10.1Zm.7-.34c-.08,1.38-.19,3.88-.17,4.54,0,1,.16,2,.28,3,0,.25,0,.51.06.76a.77.77,0,0,1-.05.21H8.34A3.7,3.7,0,0,1,8,17.88a4.35,4.35,0,0,1-.68-2.51c0-.18,0-.37,0-.55a13,13,0,0,1,.1-3.21c.07-.42.2-.83.31-1.24a2.18,2.18,0,0,0,0-1.48.48.48,0,0,1,0-.1A.49.49,0,0,1,8.09,9,1.16,1.16,0,0,1,8.28,9.76Zm.55.49a6.31,6.31,0,0,1,.32,2c0,.4,0,1.3,0,1.32,0,.4-.05.79-.09,1.19a13.22,13.22,0,0,0,.38,4.71,4.23,4.23,0,0,1,.09.51,1.63,1.63,0,0,1,0,.26H9.48a1.23,1.23,0,0,1-.11-.13,3.88,3.88,0,0,1-.52-1.18,17,17,0,0,1-.26-2.21c-.05-.49-.14-1-.18-1.46s-.07-.74-.07-1.11c0-.61.07-1.31.07-1.87,0-.73.06-1.45.11-2.17,0-.06,0-.12,0-.18l.08,0A2.86,2.86,0,0,1,8.83,10.25Zm1.69.35a5.34,5.34,0,0,1,.31,1.77c0,.49.09,2.73.23,3.88a12.88,12.88,0,0,1,.12,3.31c0,.26-.07.52-.1.79S11,21.12,11,21.5c0,.07,0,.14,0,.21l-.06,0c-.13-.12-.26-.24-.38-.37s-.21-.28-.32-.42A2.13,2.13,0,0,1,9.82,20a13.19,13.19,0,0,1-.6-3.2c0-.92,0-1.83.08-2.74q0-.32,0-.63a15.06,15.06,0,0,0-.43-3.93,2.06,2.06,0,0,1-.08-.34.87.87,0,0,1,0-.16,2.91,2.91,0,0,1,.42.16A2.93,2.93,0,0,1,10.52,10.6Zm.73.53c.1.26.18.53.26.79a16.5,16.5,0,0,1,.19,1.8c.06.85.11,1.71.23,2.56.08.57.24,1.13.37,1.7a22.1,22.1,0,0,1,.47,3.26c0,.59.12,1.18.18,1.77a2,2,0,0,1,0,.46c0,.11-.09.15-.19.06-.38-.36-.76-.71-1.11-1.09a1.58,1.58,0,0,1-.36-1.06,9.11,9.11,0,0,1,0-1.27,13.76,13.76,0,0,0,0-3.45c-.13-.93-.13-1.87-.2-2.8,0-.52,0-1.11,0-1.63,0-.31-.06-.61-.08-.92,0-.15,0-.3,0-.45l.07,0A1.57,1.57,0,0,1,11.25,11.13Zm2.13,8a13.45,13.45,0,0,1,1.13,4.2c0,.42,0,.88,0,1.33,0,.23-.06.27-.27.15a1.66,1.66,0,0,1-.93-1.21,17,17,0,0,1-.16-1.8,14.94,14.94,0,0,0-.58-3.55A22.14,22.14,0,0,1,12,15.37a21.41,21.41,0,0,1-.14-2.31,2.25,2.25,0,0,1,0-.3c0-.11,0-.16.08,0a1.56,1.56,0,0,1,.12.37c0,.49.08,1,.11,1.47A13.54,13.54,0,0,0,13.38,19.13Zm1.38-5.07c0,.14.11.27.14.42a12,12,0,0,1,.22,3.76c-.08,1-.13,2.05-.14,3.08A10.54,10.54,0,0,0,15.7,25c.11.29.21.59.31.88,0,0,0,.11,0,.13a.15.15,0,0,1-.13,0,1.67,1.67,0,0,1-.64-.49,2.6,2.6,0,0,1-.43-1.33c-.08-.84-.15-1.67-.22-2.5a4.26,4.26,0,0,0-.17-.84,4.65,4.65,0,0,1,0-2.32,17.32,17.32,0,0,0,.41-2.27,7.68,7.68,0,0,0-.09-2c0-.07,0-.14,0-.2Zm1.41,7.29a9,9,0,0,0,1,3.65,15,15,0,0,1,.59,1.42,2.22,2.22,0,0,1,.09.51c0,.12-.05.18-.16.16A.74.74,0,0,1,17.5,27a1.82,1.82,0,0,1-1-1q-.43-1.17-.79-2.35c-.12-.41-.24-.83-.33-1.25a10.81,10.81,0,0,1-.12-2.49c0-1.38.08-2.77,0-4.14,0-.47-.13-.94-.18-1.41a1.76,1.76,0,0,1,0-.21l.06,0c.07.14.16.29.22.42a10.19,10.19,0,0,1,.73,4.2C16.13,19.61,16.12,20.5,16.17,21.35Zm.28-1.45.11.49c.2.89.42,1.79.67,2.68a1.5,1.5,0,0,1,0,1l0,.1,0,0A5.48,5.48,0,0,1,16.45,19.9Zm1.6,2.89a3.29,3.29,0,0,1-.3.33.16.16,0,0,1-.15,0,.36.36,0,0,1-.1-.16c-.13-.32-.26-.64-.38-1a1.69,1.69,0,0,1,0-.17l0,0,.12.1.79.69A.13.13,0,0,1,18.05,22.79Zm2.57-3.57a10.41,10.41,0,0,1,0,1.11,14.69,14.69,0,0,1-.74,2.82,14.76,14.76,0,0,0-.7,3.32,2.77,2.77,0,0,0,.26,1.32c.08.2,0,.3-.19.24a1.46,1.46,0,0,1-.51-.29,1.25,1.25,0,0,1-.34-.45c-.27-.65-.5-1.32-.71-2a3.75,3.75,0,0,1-.12-.58,1.47,1.47,0,0,1,.21-1,13,13,0,0,1,1.07-1.46,8.93,8.93,0,0,0,1.12-1.69,4.33,4.33,0,0,0,.39-1.74s0-.1,0-.2A.76.76,0,0,1,20.62,19.22Zm.05-.8-.1-.29s0,0,0-.06a1.27,1.27,0,0,1,.28.2,4,4,0,0,1,.81,2,6.27,6.27,0,0,1-.23,2.35c-.23.91-.49,1.81-.68,2.73a16.42,16.42,0,0,0-.25,1.8,3.74,3.74,0,0,0,.24,1.43.72.72,0,0,0,.08.14l-.06,0a1.19,1.19,0,0,1-.21-.07,1.51,1.51,0,0,1-.62-.66,4.15,4.15,0,0,1-.44-2.18,8.62,8.62,0,0,1,.6-2.41c.18-.51.36-1,.54-1.52A5.29,5.29,0,0,0,20.67,18.42ZM23,21.59a17,17,0,0,1-.61,2.4,7.44,7.44,0,0,0-.23,4c.07.29.2.57.29.86s.11.39.16.59,0,.18-.14.17a.69.69,0,0,1-.31-.13,3.21,3.21,0,0,1-1.3-2.54,11.43,11.43,0,0,1,.52-3.34c.12-.41.26-.83.37-1.24a5.39,5.39,0,0,0,.05-2.81,5.08,5.08,0,0,0-.59-1.38,13.09,13.09,0,0,0-1.46-1.92l-.09-.12a.77.77,0,0,1,.56,0,3.18,3.18,0,0,1,1.95,1.93,8.28,8.28,0,0,0,.49,1.06A4,4,0,0,1,23,21.59Zm-.79,4.65a9.65,9.65,0,0,1,.62-2.68L23,23.4a1.45,1.45,0,0,1,.15.27A10.68,10.68,0,0,1,23.54,26a4.25,4.25,0,0,1-.15,1.18,6.74,6.74,0,0,0-.2,1.88c0,.14,0,.29,0,.43l-.06,0c-.16-.28-.32-.54-.45-.83A4.69,4.69,0,0,1,22.26,26.24Zm2.19-4.12a6.12,6.12,0,0,1,.19,1.71c0,.61,0,1.23-.05,1.85a5.71,5.71,0,0,0,.29,2.12,19.19,19.19,0,0,0,.83,1.88,6.78,6.78,0,0,0,.58.81,3.3,3.3,0,0,1,.23.37.14.14,0,0,1-.09.21.78.78,0,0,1-.37,0c-.42-.12-.84-.27-1.26-.41s-.61-.35-.89-.54A1.47,1.47,0,0,1,23.37,29a5.69,5.69,0,0,1,.18-1.83,5.51,5.51,0,0,0,.1-2.09,12.15,12.15,0,0,0-.38-1.85,3.46,3.46,0,0,1-.08-1.32c0-.51,0-1,.09-1.53a1.58,1.58,0,0,1,.07-.28,1.17,1.17,0,0,1,.23.1.43.43,0,0,1,.14.17A10.73,10.73,0,0,1,24.45,22.12Zm.5,1.1c.22.67.48,1.34.73,2a4.86,4.86,0,0,1,.2,1.53,8.59,8.59,0,0,0,.48,2.75,2,2,0,0,1,.06.29l-.06,0a2.21,2.21,0,0,1-.31-.35,19.35,19.35,0,0,1-1-1.79,4.6,4.6,0,0,1-.31-1.76c0-.91,0-1.83,0-2.73,0,0,0-.06,0-.14S24.93,23.17,24.94,23.21Zm.86.34a12.53,12.53,0,0,1,.56,3c.05.55.1,1.1.2,1.65A11.34,11.34,0,0,0,27.46,31a1.68,1.68,0,0,0,.11.17.22.22,0,0,1-.28-.13,5.76,5.76,0,0,1-.42-.79,11.37,11.37,0,0,1-.81-3.69,7.36,7.36,0,0,0-.61-2.82c-.21-.47-.37-1-.54-1.45l-.06-.16.07,0a.84.84,0,0,1,.13.09A3.79,3.79,0,0,1,25.8,23.55Zm.51.39A28.11,28.11,0,0,1,27,27.25a14.31,14.31,0,0,0,.73,2.89c.14.38.29.76.44,1.15,0,.08,0,.16.07.23l-.05,0a3.07,3.07,0,0,1-.27-.36,11.13,11.13,0,0,1-1.27-4c-.11-.84-.13-1.75-.31-2.58a9,9,0,0,0-.57-1.85l-.06-.14,0,0a1.74,1.74,0,0,1,.16.19A4,4,0,0,1,26.31,23.95Zm1,1.26c.14.74.28,1.5.43,2.26A13,13,0,0,0,29,31.16c.1.19.19.38.28.58a3.38,3.38,0,0,1,.11.39,1.33,1.33,0,0,1-.58-.3,2,2,0,0,1-.65-1c-.35-1.14-.65-2.31-.91-3.47s-.39-2.16-.68-3.18c-.1-.35-.22-.68-.32-1,0-.08-.06-.15-.08-.23l0,0a2.13,2.13,0,0,1,.14.17A5.33,5.33,0,0,1,27.29,25.21Zm3.52,5.37a1.6,1.6,0,0,1-.53,1.54l-.15.1a.21.21,0,0,1-.32-.08c-.16-.27-.33-.54-.47-.83a15.32,15.32,0,0,1-1.21-3.2c-.25-1-.48-2-.67-3A5.34,5.34,0,0,0,27,23.64a1.07,1.07,0,0,1,0-.11.92.92,0,0,1,.6.43,5.49,5.49,0,0,1,.67,1.42A12.33,12.33,0,0,0,30,28.63,4.07,4.07,0,0,1,30.8,30.57Zm2.75.1a4.82,4.82,0,0,1-.11,1.48,3.74,3.74,0,0,1-.19.53.52.52,0,0,1-.53.37c-.47,0-.94-.14-1.41-.23l-.09,0c-.32-.17-.37-.27-.2-.62s.38-.78.57-1.18a5.84,5.84,0,0,0,.58-2.88,3,3,0,0,0-.35-1.22l-.1-.2a.63.63,0,0,1,0-.1,2.33,2.33,0,0,1,.27.19A5.55,5.55,0,0,1,33.56,30.67Zm.26-.73A5.7,5.7,0,0,1,34,33a.89.89,0,0,1,0,.12.29.29,0,0,1-.53.07.18.18,0,0,1,0-.13,5.58,5.58,0,0,0,.26-2.89,3.7,3.7,0,0,1,0-.38l0,0A.78.78,0,0,1,33.81,29.95Zm.39,3.19a.79.79,0,0,1,0-.18,3.53,3.53,0,0,0,.09-1.18c0-.05,0-.1,0-.15a3.72,3.72,0,0,1,.4,1.14,2.45,2.45,0,0,1,.05.36c0,.22-.06.35-.22.37A.34.34,0,0,1,34.2,33.13Zm.08-3a5.8,5.8,0,0,1,1,1.82,2.06,2.06,0,0,1,0,1.22.39.39,0,0,1-.07.16,1.59,1.59,0,0,1-.21.16,1.22,1.22,0,0,1-.07-.22,8.46,8.46,0,0,0-.61-2.19,6.06,6.06,0,0,1-.26-1l0,0A1,1,0,0,1,34.28,30.17Zm1.48,2.88a2.33,2.33,0,0,1-.16-.4,6.75,6.75,0,0,0-1-2.34,13.6,13.6,0,0,1-.78-1.38,1.88,1.88,0,0,1-.2-.94c0-.07,0-.15,0-.25l0,.07a12.35,12.35,0,0,0,1.24,2.37,10.75,10.75,0,0,1,.68,1.27,5.68,5.68,0,0,1,.27,1A.7.7,0,0,1,35.76,33.05Zm-2,4.25a2.81,2.81,0,0,1,.07-1.69c.06-.13.13-.25.2-.38l.05,0,0,.13a3.6,3.6,0,0,0-.12,1.93c.08.44.14.88.22,1.32a1.82,1.82,0,0,1,0,.23h0s0-.09,0-.13C34,38.27,33.85,37.79,33.75,37.31Zm-2.43-.78a14.14,14.14,0,0,1,1.16-1.25,5.05,5.05,0,0,1,.93-.61,1,1,0,0,1,.35-.05l0,.06-.41.54A16.82,16.82,0,0,1,31,37.79a5.38,5.38,0,0,1-2.08,1.12,1.72,1.72,0,0,1-.83,0,1,1,0,0,1,.16-.1A7.35,7.35,0,0,0,31.32,36.53Zm1.36-2a.6.6,0,0,1-.15.08,6.57,6.57,0,0,0-2.88,1.5c-.42.33-.87.62-1.31.91a1.82,1.82,0,0,1-.3.13l0-.06.89-.72a13.07,13.07,0,0,1,2.19-1.48,3.46,3.46,0,0,1,1.24-.41h.34Zm-5,3.17.16-.11a15.67,15.67,0,0,0,1.42-.93,9.3,9.3,0,0,1,2.32-1.5,6.83,6.83,0,0,1,.67-.21.8.8,0,0,1,.2,0v0c-.07.07-.15.14-.22.21-.41.47-.82.94-1.25,1.39a3.94,3.94,0,0,1-2.47,1.21,3,3,0,0,1-.54,0A1.68,1.68,0,0,1,27.64,37.7Zm-4-.3a9.06,9.06,0,0,0,2.7-.62,8.92,8.92,0,0,0,1.86-1c.4-.27.79-.56,1.18-.85a4.94,4.94,0,0,1,1.33-.69,1.23,1.23,0,0,1,.88,0,1.31,1.31,0,0,1,.16.1s-.07.06-.09.07a8.32,8.32,0,0,0-1.5.79,17.12,17.12,0,0,0-2.66,1.9,3.7,3.7,0,0,1-1.94.92A2.74,2.74,0,0,1,23.64,37.4Zm-1-.85.28-.06a7,7,0,0,0,1-.2,4.4,4.4,0,0,0,1-.5c.63-.43,1.22-.92,1.83-1.39A5.22,5.22,0,0,1,28,33.63,1.68,1.68,0,0,1,29,33.55c.34.08.68.2,1,.3a.76.76,0,0,1,.15.09c-.33.19-.67.34-1,.55-.66.45-1.3.92-2,1.36a7.57,7.57,0,0,1-2.4,1.1,5.22,5.22,0,0,1-1.25.1A1.59,1.59,0,0,1,22.6,36.55Zm-.95-.6v0l.34,0a3.91,3.91,0,0,0,2.26-.38c.6-.29,1.16-.66,1.73-1l.33-.19s0,.06,0,.07a5.54,5.54,0,0,1-1.86,1.31,5,5,0,0,1-1.73.39,7.22,7.22,0,0,1-1-.11A.51.51,0,0,1,21.65,35.95Zm5.67-2.7a4,4,0,0,1,.43,0v0a9.78,9.78,0,0,0-.9.4c-.6.34-1.19.71-1.79,1.05a7,7,0,0,1-1.67.8,4.33,4.33,0,0,1-2.58-.08,5.14,5.14,0,0,1-.63-.31.24.24,0,0,1-.1-.13l.47.06a8.38,8.38,0,0,0,2.53.08,4.77,4.77,0,0,0,1.79-.63L26,33.81A3.25,3.25,0,0,1,27.32,33.25ZM21,30a41,41,0,0,1-4.29-2.46,26,26,0,0,1-2.52-1.89,31.4,31.4,0,0,1-2.45-2.27c-1-1-1.87-2-2.71-3.09a38.52,38.52,0,0,1-3.08-4.5c-.28-.47-.7-1.54-1-2.26S4.28,12.08,4,11.35a.17.17,0,0,1,0-.14,2.2,2.2,0,0,1,.19.31c.14.36.29.72.42,1.09A21.94,21.94,0,0,0,6.1,15.75c.74,1.16,1.49,2.32,2.28,3.44A24.07,24.07,0,0,0,12,23.25a38.31,38.31,0,0,0,8,5.59A56.19,56.19,0,0,0,25.7,31.4a45,45,0,0,0,4.53,1.38c1.13.29,2.3.54,3.45.77.41.08.82.21,1.23.29,1,.19,2,.33,3,.47.64.09,1.29.18,1.92.25l.24,0a.78.78,0,0,1-.46.35,3.42,3.42,0,0,1-2,.12c-.95-.19-1.9-.36-2.87-.53s-2.13-.32-3.14-.57A54,54,0,0,1,21,30Zm-6.58,1.91a1.07,1.07,0,0,1,.65,0,16.94,16.94,0,0,1,2.55.9,12.94,12.94,0,0,0,2.62.8,5.6,5.6,0,0,0,2.46-.18c.69-.17,1.37-.38,2-.55a8.79,8.79,0,0,1,1.07-.16,1.29,1.29,0,0,1,.31,0v.06a1.43,1.43,0,0,1-.21.16A14.16,14.16,0,0,1,23,34.15a5.36,5.36,0,0,1-3.09-.23c-1.15-.41-2.28-.88-3.42-1.33-.62-.25-1.28-.42-1.92-.64Z"/></g></g></svg>