<?xml version="1.0" encoding="UTF-8" standalone="no"?>
<svg width="75px" height="75px" viewBox="0 0 75 75" version="1.1" xmlns="http://www.w3.org/2000/svg" xmlns:xlink="http://www.w3.org/1999/xlink">
    <!-- Generator: Sketch 41.2 (35397) - http://www.bohemiancoding.com/sketch -->
    <title>youtube</title>
    <desc>Created with Sketch.</desc>
    <defs></defs>
    <g id="Page-1" stroke="none" stroke-width="1" fill="none" fill-rule="evenodd">
        <g id="youtube" fill="#000000">
            <g id="Layer_2">
                <g id="Layer_1-2">
                    <g id="_Group_">
                        <path d="M37.5,4 C56.0015391,4 71,18.9984609 71,37.5 C71,56.0015391 56.0015391,71 37.5,71 C18.9984609,71 4,56.0015391 4,37.5 C4.02204103,19.0075983 19.0075983,4.02204103 37.5,4 L37.5,4 Z M37.5,8.8817842e-16 C16.7893219,-1.26816328e-15 2.53632657e-15,16.7893219 0,37.5 C-2.53632657e-15,58.2106781 16.7893219,75 37.5,75 C58.2106781,75 75,58.2106781 75,37.5 C75,27.5543816 71.0491185,18.0161099 64.0165043,10.9834957 C56.9838901,3.95088151 47.4456184,6.08993485e-16 37.5,0 L37.5,8.8817842e-16 Z" id="Shape"></path>
                    </g>
                    <g id="_Group_2" transform="translate(21.000000, 20.000000)">
                        <path d="M18.87,23.68 C18.5125953,23.7007528 18.1780691,23.8626203 17.94,24.13 L17.94,30.4 C18.1756521,30.6719961 18.5108069,30.8377716 18.87,30.86 C19.41,30.86 19.68,30.4 19.68,29.47 L19.68,25.08 C19.68,24.15 19.4,23.67 18.87,23.67 L18.87,23.68 Z" id="_Compound_Path_"></path>
                        <path d="M25.69,23.68 C25.07,23.68 24.76,24.15 24.76,25.11 L24.76,26.11 L26.62,26.11 L26.62,25.11 C26.62,24.11 26.31,23.68 25.69,23.68 Z" id="_Compound_Path_2"></path>
                        <path d="M29.57,16.62 C28.7506652,15.7977253 27.6407451,15.3307686 26.48,15.32 C22.17,15 15.71,15 15.71,15 L15.71,15 C15.71,15 9.25,15 4.94,15.31 C3.78295176,15.3244469 2.67748166,15.7910415 1.86,16.61 C1.21048997,17.4931576 0.791200772,18.5241966 0.64,19.61 C0.448034507,21.2532524 0.34455184,22.9056369 0.33,24.56 L0.33,26.88 C0.342908493,28.5510439 0.446393657,30.2201594 0.64,31.88 C0.790790968,32.9659134 1.21011972,33.9970496 1.86,34.88 C2.79800158,35.706335 4.00007605,36.1708534 5.25,36.19 C7.72,36.43 15.72,36.5 15.72,36.5 C15.72,36.5 22.19,36.5 26.49,36.18 C27.6495394,36.1729632 28.7596518,35.7095182 29.58,34.89 C30.2298803,34.0070496 30.649209,32.9759134 30.8,31.89 C30.993392,30.2301403 31.0968764,28.5610364 31.11,26.89 L31.11,24.6 C31.0952558,22.9456438 30.9917738,21.2932695 30.8,19.65 C30.6487992,18.5641966 30.22951,17.5331576 29.58,16.65 L29.57,16.62 Z M7.1,32.41 L5,32.41 L5,20.55 L2.8,20.55 L2.8,18.61 L9.31,18.61 L9.31,20.55 L7.1,20.55 L7.1,32.41 Z M14.46,32.41 L12.59,32.41 L12.59,31.28 C12.0963837,31.9907076 11.3199311,32.4536629 10.46,32.55 C9.9299536,32.6021843 9.43342991,32.2835816 9.26,31.78 C9.13254198,31.2804953 9.07864101,30.7650672 9.1,30.25 L9.1,22.13 L11,22.13 L11,29.7 C10.987959,29.939849 10.987959,30.180151 11,30.42 C11,30.71 11.19,30.86 11.44,30.86 C11.69,30.86 12.21,30.57 12.62,29.99 L12.62,22.13 L14.49,22.13 L14.46,32.41 Z M21.55,29.33 C21.5751713,30.0252784 21.51132,30.7209213 21.36,31.4 C21.2060187,32.0927289 20.579139,32.5765622 19.87,32.55 C19.0847171,32.4897731 18.371798,32.0686706 17.94,31.41 L17.94,32.41 L16.07,32.41 L16.07,18.61 L17.94,18.61 L17.94,23.12 C18.3761188,22.4689353 19.0883411,22.055625 19.87,22 C20.5808655,21.978444 21.2065555,22.4655584 21.36,23.16 C21.5141163,23.8386377 21.5780011,24.5346462 21.55,25.23 L21.55,29.33 Z M28.49,27.61 L24.76,27.61 L24.76,29.43 C24.76,30.43 25.07,30.86 25.76,30.86 C26.1945249,30.8771365 26.5631589,30.5440335 26.59,30.11 C26.6124588,29.6903002 26.6124588,29.2696998 26.59,28.85 L28.49,28.85 L28.49,29.12 L28.49,30.32 C28.4140156,30.722701 28.2463535,31.102507 28,31.43 C27.4916257,32.1697145 26.6365103,32.5934885 25.74,32.55 C24.8577067,32.592252 24.0116182,32.195414 23.48,31.49 C23.0272824,30.7678584 22.8170668,29.9199889 22.88,29.07 L22.88,25.47 C22.8111056,24.6221831 23.0142745,23.7744782 23.46,23.05 C23.9906214,22.3499588 24.832635,21.9570191 25.71,22 C26.5739693,21.9655362 27.3985445,22.3628315 27.91,23.06 C28.3557255,23.7844782 28.5588944,24.6321831 28.49,25.48 L28.49,27.61 Z" id="_Compound_Path_3"></path>
                        <path d="M10.78,14 L10.78,8.34 L13.29,0 L11.18,0 L9.75,5.47 L8.27,0 L6.07,0 C6.51,1.29 6.97,2.59 7.41,3.89 C7.93351545,5.33014339 8.36111708,6.80336463 8.69,8.3 L8.69,14 L10.78,14 Z" id="_Compound_Path_4"></path>
                        <path d="M15.69,14.13 C16.5547134,14.1680694 17.3809006,13.7699974 17.89,13.07 C18.3433993,12.3410494 18.5502565,11.4855723 18.48,10.63 L18.48,7 C18.5460289,6.14476186 18.3394861,5.29058491 17.89,4.56 C17.358912,3.8894123 16.5504194,3.49838287 15.695,3.49838287 C14.8395806,3.49838287 14.031088,3.8894123 13.5,4.56 C13.0431038,5.28777164 12.8327199,6.14333255 12.9,7 L12.9,10.64 C12.8297435,11.4955723 13.0366007,12.3510494 13.49,13.08 C13.997902,13.7814305 14.824912,14.179899 15.69,14.14 L15.69,14.13 Z M14.79,6.61 C14.79,5.61 15.08,5.17 15.69,5.17 C16.3,5.17 16.59,5.65 16.59,6.61 L16.59,11 C16.59,12 16.3,12.44 15.69,12.44 C15.08,12.44 14.79,11.96 14.79,11 L14.79,6.61 Z" id="_Compound_Path_5"></path>
                        <path d="M25.34,14 L25.34,3.59 L23.46,3.59 L23.46,11.53 C23.04,12.12 22.65,12.41 22.27,12.41 C21.89,12.41 21.87,12.26 21.83,11.97 C21.8096869,11.7270906 21.8096869,11.4829094 21.83,11.24 L21.83,3.59 L19.92,3.59 L19.92,11.81 C19.8994451,12.3289424 19.9567476,12.8480363 20.09,13.35 C20.2681937,13.8590884 20.7737737,14.178184 21.31,14.12 C22.1788868,14.026833 22.9639633,13.5594387 23.46,12.84 L23.46,14 L25.34,14 Z" id="_Compound_Path_6"></path>
                    </g>
                </g>
            </g>
        </g>
    </g>
</svg>